<?xml version="1.0" encoding="utf-8"?>
<!-- Generator: Adobe Illustrator 24.2.0, SVG Export Plug-In . SVG Version: 6.00 Build 0)  -->
<svg version="1.1" id="Layer_1" xmlns="http://www.w3.org/2000/svg" xmlns:xlink="http://www.w3.org/1999/xlink" x="0px" y="0px"
	 viewBox="0 0 530 50" style="enable-background:new 0 0 530 50;" xml:space="preserve">
<style type="text/css">
	.st0{fill:#F0F0F0;stroke:#1E1B19;stroke-miterlimit:10;}
	.st1{fill:#FFA32D;stroke:#1E1B19;stroke-miterlimit:10;}
	.st2{fill:#F0F0F0;}
	.st3{fill:#FFA32D;}
	.st4{fill:#AA651A;}
</style>
<g>
	<path class="st0" d="M390.6,46.3l-10.2-17v8.4h2.3v8.6h-15v-8.6h2.3V16.9h-2.3V8.4H380l10.4,17.4v-8.8h-2.3V8.4h15v8.6h-2.3v20.8
		h2.3v8.6H390.6z"/>
	<path class="st0" d="M418.4,37.7h6.7v-1.5h8.6v10.1h-27.9v-8.6h2.3V16.9h-2.3V8.4h27.9v10h-8.6v-1.5h-6.7V23h1.5v-1.5h8.5v11.5H420
		v-1.5h-1.5V37.7z"/>
	<path class="st0" d="M463.1,37.7h1.2v8.6H445v-8.6h1.2l-6.9-20.8h-3.1V8.4h15.9v8.6h-1.5l4.2,12.5l4.1-12.5h-1.2V8.4h16.9v8.6h-1.2
		l4.1,12.5l4.2-12.5h-1.2V8.4h15.5v8.6h-3l-6.9,20.8h1.2v8.6H468v-8.6h1.2l-3-9.1L463.1,37.7z"/>
	<path class="st0" d="M515.2,31.7H504l-6.1-6V14.4l6.1-6.1h16.7l6.1,6.1v7.4h-10.4v-3.7l-1.2-1.2h-5.6l-1.2,1.2v3.8l1.2,1.2h11.1
		l6.1,6.1v11l-6.1,6.1H504l-6.1-6.1V33h10.4v3.6l1.2,1.2h5.6l1.2-1.2v-3.6L515.2,31.7z"/>
	<g>
		<path class="st1" d="M86.3,31.7H75.1L69,25.6V14.3l6.1-6.1h16.8l6.1,6.1v7.5H87.5v-3.8l-1.2-1.2h-5.6l-1.2,1.2v3.8l1.2,1.2h11.2
			l6.1,6.1v11.1l-6.1,6.1H75.1L69,40.3v-7.3h10.5v3.6l1.2,1.2h5.6l1.2-1.2v-3.7L86.3,31.7z"/>
		<path class="st1" d="M113.3,16.8v20.9h6.9v-2.3h8.6v10.9h-28.2v-8.6h2.3V16.8h-2.3V8.2h15.1v8.6H113.3z"/>
		<path class="st1" d="M159.9,8.2v8.6H158l8.4,20.9h2.3v8.6H154v-8.6h1.2l-0.5-1.7h-10.1l-0.6,1.7h1.2v8.6h-14.6v-8.6h2.3l8.4-20.9
			h-1.6V8.2H159.9z M147.2,28.7h4.8l-2.4-6L147.2,28.7z"/>
		<path class="st1" d="M191.7,41.6l-8.3-13.8v9.9h2.3v8.6h-15.1v-8.6h2.3V16.8h-2.3V8.2h12.3l8.8,14.7l8.8-14.7h12.3v8.6h-2.3v20.9
			h2.3v8.6h-15.1v-8.6h2.3v-9.9L191.7,41.6z"/>
		<path class="st1" d="M215.4,8.2H239l6.1,6.1v25.9l-6.1,6.1h-23.6v-8.6h2.3V16.8h-2.3V8.2z M228.1,37.7h5.2l1.2-1.2V18.1l-1.2-1.2
			h-5.2V37.7z"/>
		<path class="st1" d="M279.1,40.2l-6.1,6.1h-16.8l-6.1-6.1V16.8h-2.3V8.2h15.1v8.6h-2.3v19.7l1.2,1.2h5.6l1.2-1.2V16.8h-2.3V8.2
			h15.1v8.6h-2.3V40.2z"/>
		<path class="st1" d="M307,46.3l-10.2-17.1v8.5h2.3v8.6h-15.1v-8.6h2.3V16.8h-2.3V8.2h12.4l10.5,17.5v-8.9h-2.3V8.2h15.1v8.6h-2.3
			v20.9h2.3v8.6H307z"/>
		<path class="st1" d="M334.9,37.7h2.3v8.6h-15.1v-8.6h2.3V16.8h-2.3V8.2h15.1v8.6h-2.3v5.4l5.4-5.4h-1V8.2h18.1v8.6h-3.2L344,27.2
			l10.6,10.6h2.9v8.6h-18.1v-8.6h1.1l-3.7-3.7l-1.8,1.8V37.7z"/>
	</g>
</g>
<path class="st2" d="M35.2,9.3c8-2.2,17.2-3.2,27.5-1.5c-2.1-1-20.7-9.5-41.6-2.3c0.4,0,0.8,0,1.3,0C27.1,5.5,31.5,6.9,35.2,9.3z"/>
<path class="st2" d="M55,12.2C50,14,46.1,16.3,43,18.7c0.5,1.2,0.9,2.4,1.3,3.7C46.5,18.6,49.8,14.7,55,12.2z"/>
<path class="st2" d="M41.9,15.9c4.9-3.4,11.1-6,18.7-6.5c-8.6-0.4-15.9,0.8-21.9,2.7C39.9,13.3,40.9,14.5,41.9,15.9z"/>
<g>
	<circle class="st2" cx="22.4" cy="27.6" r="20.7"/>
	<circle class="st3" cx="22.6" cy="27.6" r="19.4"/>
	<path class="st4" d="M22.6,8.2c-0.7,0-1.4,0-2.1,0.1c9.7,1.1,17.2,9.3,17.2,19.2s-7.5,18.2-17.2,19.2c0.7,0.1,1.4,0.1,2.1,0.1
		c10.7,0,19.4-8.7,19.4-19.4S33.3,8.2,22.6,8.2z"/>
	<path class="st2" d="M9.2,31.3c-0.2-1.6-0.2-3.2,0-4.8c3.2-0.1,6.4-2.3,10.2-4.8c4.8-3.2,10.2-6.8,16.9-7.4l0.4,0
		c-0.3-0.3-0.5-0.5-0.8-0.8C29.1,14.2,23.7,17.8,19,21c-3.6,2.4-6.8,4.6-9.7,4.7c0.7-5.7,3.4-11.7,9.2-17c-0.6,0.1-1.2,0.3-1.7,0.5
		c-2.9,2.9-7.5,8.4-8.4,16.5c-4-0.4-3.5-4.6-2.7-7.5c-0.6,1-1.1,2.1-1.4,3.3c-0.1,2.9,1.2,4.8,4,5.1c-0.1,1.6-0.1,3.2,0,4.7
		c-2.8-0.4-4.2-0.9-4.9-1.2c0,0.3,0.1,0.7,0.1,1c0.7,0.3,2.1,0.7,4.9,1.1c0.2,1.7,0.6,3.4,1.1,5c-0.7,0-2.2,0-3.3,0.7
		c0.2,0.2,0.3,0.5,0.5,0.7c0.8-0.5,2-0.7,3.2-0.5c0.7,2.2,1.7,4.3,2.9,6.3c0.5,0.3,1,0.6,1.6,0.8c-1.5-2.1-2.6-4.5-3.5-6.9
		c2.5,0.6,5.2,2.4,8.2,4.4c2.1,1.4,4.3,2.9,6.6,4.1c0.5-0.1,0.9-0.2,1.4-0.3c-2.7-1.4-5.2-3-7.5-4.6c-3.3-2.2-6.2-4.2-9-4.7
		c-0.5-1.6-0.9-3.3-1.1-5c9.4,1.1,24.9,0.1,32.6-3.2c0-0.3,0-0.6,0-1C34.7,31.3,18.9,32.5,9.2,31.3L9.2,31.3z"/>
</g>
</svg>
