<?xml version="1.0" encoding="utf-8"?>
<!-- Generator: Adobe Illustrator 24.2.0, SVG Export Plug-In . SVG Version: 6.00 Build 0)  -->
<svg version="1.1" id="Layer_1" xmlns="http://www.w3.org/2000/svg" xmlns:xlink="http://www.w3.org/1999/xlink" x="0px" y="0px"
	 viewBox="0 0 589 57" style="enable-background:new 0 0 589 57;" xml:space="preserve">
<style type="text/css">
	.st0{fill:#FFA32D;stroke:#1E1B19;stroke-miterlimit:10;}
	.st1{fill:#F0F0F0;stroke:#1E1B19;stroke-miterlimit:10;}
	.st2{fill:#F0F0F0;}
	.st3{fill:#630009;}
	.st4{fill:#AA651A;}
	.st5{fill:#FFA32D;}
</style>
<g>
	<path class="st0" d="M115.9,24.5h-8.5v-2.2h-2.3v20.8h2.3v8.6h-15v-8.6h2.3V22.2h-2.3v2.2h-8.5V13.7h32.1V24.5z"/>
	<path class="st0" d="M117.8,19.8l6.1-6.1h16.7l6.1,6.1v25.8l-6.1,6.1h-16.7l-6.1-6.1V19.8z M136.2,23.5l-1.2-1.2h-5.6l-1.2,1.2
		v18.4l1.2,1.2h5.6l1.2-1.2V23.5z"/>
	<path class="st0" d="M180.5,45.5l-6.1,6.1h-16.7l-6.1-6.1V22.2h-2.3v-8.6h15v8.6h-2.3v19.6l1.2,1.2h5.6l1.2-1.2V22.2h-2.3v-8.6h15
		v8.6h-2.3V45.5z"/>
	<path class="st0" d="M214.2,28.2h-10.4v-4.8l-1.2-1.2H197l-1.2,1.2v18.4l1.2,1.2h5.6l1.2-1.2v-4.6h10.4v8.2l-6.1,6.1h-16.7
		l-6.1-6.1V19.8l6.1-6.1h16.7l6.1,6.1V28.2z"/>
	<path class="st0" d="M237.1,43.1v-6.3h-7.4v6.3h2.3v8.6h-15v-8.6h2.3V22.2H217v-8.6h15v8.6h-2.3v5.2h7.4v-5.2h-2.3v-8.6h15v8.6
		h-2.3v20.8h2.3v8.6h-15v-8.6H237.1z"/>
	<path class="st0" d="M252.4,13.7h23.5l6.1,6.1v25.8l-6.1,6.1h-23.5v-8.6h2.3V22.2h-2.3V13.7z M265.1,43.1h5.2l1.2-1.2V23.5
		l-1.2-1.2h-5.2V43.1z"/>
	<path class="st0" d="M284.7,19.8l6.1-6.1h16.7l6.1,6.1v25.8l-6.1,6.1h-16.7l-6.1-6.1V19.8z M303.1,23.5l-1.2-1.2h-5.6l-1.2,1.2
		v18.4l1.2,1.2h5.6l1.2-1.2V23.5z"/>
	<path class="st0" d="M343.3,43.1h1.2v8.6h-19.4v-8.6h1.2l-6.9-20.8h-3.1v-8.6h15.9v8.6h-1.5l4.2,12.5l4.1-12.5h-1.2v-8.6h16.9v8.6
		h-1.2l4.1,12.5l4.2-12.5h-1.2v-8.6h15.5v8.6h-3l-6.9,20.8h1.2v8.6h-19.4v-8.6h1.2l-3-9.1L343.3,43.1z"/>
	<path class="st0" d="M401.1,51.6l-10.2-17v8.4h2.3v8.6h-15v-8.6h2.3V22.2h-2.3v-8.6h12.3l10.4,17.4v-8.8h-2.3v-8.6h15v8.6h-2.3
		v20.8h2.3v8.6H401.1z"/>
	<path class="st1" d="M452.1,51.6l-10.2-17v8.4h2.3v8.6h-15v-8.6h2.3V22.2h-2.3v-8.6h12.3L452,31.1v-8.8h-2.3v-8.6h15v8.6h-2.3v20.8
		h2.3v8.6H452.1z"/>
	<path class="st1" d="M480,43.1h6.7v-1.5h8.6v10.1h-27.9v-8.6h2.3V22.2h-2.3v-8.6h27.9v10h-8.6v-1.5H480v6.1h1.5v-1.5h8.5v11.5h-8.5
		v-1.5H480V43.1z"/>
	<path class="st1" d="M524.7,43.1h1.2v8.6h-19.4v-8.6h1.2l-6.9-20.8h-3.1v-8.6h15.9v8.6h-1.5l4.2,12.5l4.1-12.5h-1.2v-8.6h16.9v8.6
		H535l4.1,12.5l4.2-12.5h-1.2v-8.6h15.5v8.6h-3l-6.9,20.8h1.2v8.6h-19.4v-8.6h1.2l-3-9.1L524.7,43.1z"/>
	<path class="st1" d="M576.8,37h-11.2l-6.1-6V19.8l6.1-6.1h16.7l6.1,6.1v7.4h-10.4v-3.7l-1.2-1.2h-5.6l-1.2,1.2v3.8l1.2,1.2h11.1
		l6.1,6.1v11l-6.1,6.1h-16.7l-6.1-6.1v-7.3H570v3.6l1.2,1.2h5.6l1.2-1.2v-3.6L576.8,37z"/>
</g>
<g>
	<path class="st2" d="M62.7,49.7c0.4-1.8-0.1-3.8-0.5-5.5c-0.6-2.5-1.6-5-2.8-7.4c-1.6-3.1-3.3-5.6-5.8-8.4
		c-4.5-5.1-10.2-9-16.3-11.7c-5.4-2.5-11.3-4-17.3-4.2C14.5,12.4,9,13.2,4,15.9c-1.1,0.6-2.3,1.6-3.2,2.6c-0.8,0.9-0.6,4.4-0.5,5.2
		c0.2,1.2,0.5,2.4,0.8,3.6c0.9,3,2.2,5.9,3.9,8.5c3.6,5.8,8.7,10.5,14.4,14.1C29.6,56.2,42,59.2,53.8,56c1.8-0.5,3.5-1.1,5.1-1.9
		C60.8,53.3,62.2,51.8,62.7,49.7C62.9,49.2,62.3,51.4,62.7,49.7z"/>
	<g>
		<g>
			<path class="st3" d="M58.9,52c0,0-0.2,0.1-0.5,0.3c-8.3,1.2-20.6-1.6-32.8-8.1C15.2,38.5,6.9,31.4,2.5,24.6
				c-0.4-1.8-0.4-2.9-0.4-2.9c0-1.1,0.5-2.3,1.3-3.2c0.2-0.3,0.5-0.5,0.8-0.6c0,0,1-0.6,2.8-1.3C8.6,16,11,15.2,14,14.8
				c2.1-0.3,4.5-0.4,7.1-0.3c5.3,0.3,11.5,1.7,18.4,5.4c6.9,3.7,11.6,8.1,14.7,12.3c1.6,2.1,2.8,4.1,3.7,6c1.4,2.8,2.1,5.2,2.5,7
				c0.4,1.8,0.5,3,0.5,3c0,0.3,0,0.7-0.1,1C60.6,50.4,59.8,51.4,58.9,52z"/>
			<path class="st4" d="M58.5,52.2c-1.2,0.6-4.5,2.1-9.4,2.8c-2.1,0.3-4.5,0.4-7.1,0.3c-5.3-0.3-11.5-1.7-18.4-5.3
				c-6.9-3.7-11.6-8-14.8-12.2c-1.6-2.1-2.8-4.1-3.7-6c-1.4-2.9-2.1-5.4-2.5-7.2c4.4,6.7,12.7,13.9,23.2,19.5
				C37.9,50.6,50.1,53.4,58.5,52.2z"/>
			<path class="st5" d="M58.9,52c0,0-0.2,0.1-0.5,0.3c-8.3,1.2-20.6-1.6-32.8-8.1C15.2,38.5,6.9,31.4,2.5,24.6
				c-0.4-1.8-0.4-2.9-0.4-2.9c0-1.1,0.5-2.3,1.3-3.2c0.2-0.3,0.5-0.5,0.8-0.6c0,0,1-0.6,2.8-1.3C8.6,16,11,15.2,14,14.8
				c2.1-0.3,4.5-0.4,7.1-0.3c5.3,0.3,11.5,1.7,18.4,5.4c6.9,3.7,11.6,8.1,14.7,12.3c1.6,2.1,2.8,4.1,3.7,6c1.4,2.8,2.1,5.2,2.5,7
				c0.4,1.8,0.5,3,0.5,3c0,0.3,0,0.7-0.1,1C60.6,50.4,59.8,51.4,58.9,52z"/>
		</g>
		<g>
			<g>
				<g>
					<path class="st2" d="M61,48.2c0,0-0.1-1.1-0.5-3C56.7,39.5,49.7,31.5,37,24.7C24.2,18,13.7,16.6,6.9,16.6
						c-1.8,0.7-2.8,1.3-2.8,1.3c-0.3,0.2-0.5,0.4-0.8,0.6c0.8-0.1,1.7-0.1,2.6-0.2c6.6-0.2,17.2,0.9,30.2,7.9
						c12.9,6.9,19.8,15,23.3,20.6c0.5,0.8,1,1.6,1.4,2.3C60.9,48.9,61,48.5,61,48.2z"/>
				</g>
				<g>
					<path class="st2" d="M61,48.2c0,0-0.1-1.1-0.5-3C56.7,39.5,49.7,31.5,37,24.7C24.2,18,13.7,16.6,6.9,16.6
						c-1.8,0.7-2.8,1.3-2.8,1.3c-0.3,0.2-0.5,0.4-0.8,0.6c0.8-0.1,1.7-0.1,2.6-0.2c6.6-0.2,17.2,0.9,30.2,7.9
						c12.9,6.9,19.8,15,23.3,20.6c0.5,0.8,1,1.6,1.4,2.3C60.9,48.9,61,48.5,61,48.2z"/>
				</g>
			</g>
			<g>
				<path class="st2" d="M25.9,23.4c-0.4,0.8-1.3,1-2.1,0.6l0,0c-0.8-0.4-1-1.3-0.6-2.1l2-3.7c0.4-0.8,1.3-1,2.1-0.6l0,0
					c0.8,0.4,1,1.3,0.6,2.1L25.9,23.4z"/>
				<path class="st2" d="M30.4,24.9c-0.4,0.8-1.3,1-2.1,0.6l0,0c-0.8-0.4-1-1.3-0.6-2.1l2-3.7c0.4-0.8,1.3-1,2.1-0.6l0,0
					c0.8,0.4,1,1.3,0.6,2.1L30.4,24.9z"/>
				<path class="st2" d="M35,26.5c-0.4,0.8-1.3,1-2.1,0.6l0,0c-0.8-0.4-1-1.3-0.6-2.1l2-3.7c0.4-0.8,1.3-1,2.1-0.6l0,0
					c0.8,0.4,1,1.3,0.6,2.1L35,26.5z"/>
				<path class="st2" d="M39.2,28.7c-0.4,0.8-1.3,1-2.1,0.6l0,0c-0.8-0.4-1-1.3-0.6-2.1l2-3.7c0.4-0.8,1.3-1,2.1-0.6l0,0
					c0.8,0.4,1,1.3,0.6,2.1L39.2,28.7z"/>
				<path class="st2" d="M43.1,31.6c-0.4,0.8-1.3,1-2.1,0.6l0,0c-0.8-0.4-1-1.3-0.6-2.1l2-3.7c0.4-0.8,1.3-1,2.1-0.6l0,0
					c0.8,0.4,1,1.3,0.6,2.1L43.1,31.6z"/>
				<path class="st2" d="M46.9,34.6c-0.4,0.8-1.3,1-2.1,0.6l0,0c-0.8-0.4-1-1.3-0.6-2.1l2-3.7c0.4-0.8,1.3-1,2.1-0.6l0,0
					c0.8,0.4,1,1.3,0.6,2.1L46.9,34.6z"/>
			</g>
		</g>
		<path class="st2" d="M58,38.3L49,55c-2.1,0.3-4.5,0.4-7.1,0.3l12.3-23.1C55.9,34.3,57.1,36.5,58,38.3z"/>
		<path class="st2" d="M21.1,14.5L8.7,37.8c-1.6-2.1-2.8-4.1-3.7-6l9-17C16.1,14.5,18.5,14.4,21.1,14.5z"/>
	</g>
</g>
<g>
	<path class="st2" d="M21.4,10.5c0.6,0,1.2,0,1.8,0c5,0.1,10,1.2,14.6,3.1c11.7-5.6,27.6-10.1,46.4-7C81.3,5.1,51.3-8.6,21.4,10.5z"
		/>
	<path class="st2" d="M56.3,25.8c0.2,0.2,0.4,0.4,0.6,0.6c1.5,1.7,2.7,3.3,3.8,5c2-6.3,6.3-14.2,15.5-18.8
		C66.6,16.1,60.3,21.3,56.3,25.8z"/>
	<path class="st2" d="M52.4,22.1C59,15.6,68.6,9.3,81.7,8.4C65,7.7,52.2,12.1,44,16.4C47,18,49.8,19.9,52.4,22.1z"/>
</g>
</svg>
